<mxfile host="app.diagrams.net" modified="2023-06-25T11:48:30.083Z" agent="Mozilla/5.0 (Windows NT 10.0; Win64; x64) AppleWebKit/537.36 (KHTML, like Gecko) Chrome/114.0.0.0 Safari/537.36 Edg/114.0.1823.58" version="21.5.0" etag="3VWlN-IeHvaQslbWbuKI" type="github">
  <diagram name="Page-1" id="_4l-1ofRrqsq-mAHPHhn">
    <mxGraphModel>
      <root>
        <mxCell id="0" />
        <mxCell id="1" parent="0" />
      </root>
    </mxGraphModel>
  </diagram>
</mxfile>
